<?xml version="1.0" encoding="utf-8"?>
<!-- Generator: Adobe Illustrator 23.0.2, SVG Export Plug-In . SVG Version: 6.00 Build 0)  -->
<svg version="1.1" id="Layer_1" xmlns="http://www.w3.org/2000/svg" xmlns:xlink="http://www.w3.org/1999/xlink" x="0px" y="0px"
	 viewBox="0 0 1150.68 248.61" style="enable-background:new 0 0 1150.68 248.61;" xml:space="preserve">
<style type="text/css">
	.st0{fill:#FFFFFF;}
	.st1{opacity:0.7;}
</style>
<path class="st0" d="M602.44,220.76c3.68-6.44,5.55-14.43,5.55-23.77c0-8.16-1.39-15.07-4.14-20.56
	c-2.75-5.5-6.58-10.15-11.38-13.81c-4.94-3.76-10.78-6.79-17.37-9.03c-6.73-2.29-14-4.2-21.59-5.67c-5.73-0.99-11.42-2.27-16.88-3.8
	c-5.56-1.56-10.52-3.38-14.73-5.43c-4.49-2.18-8.08-4.76-10.7-7.66c-2.92-3.22-4.39-7.15-4.39-11.7c0-4.63,1.26-8.82,3.74-12.47
	c2.35-3.46,5.38-6.36,9-8.6c3.53-2.17,7.55-3.8,11.97-4.87c4.34-1.05,8.68-1.59,12.89-1.59c9.28,0,17.35,2.12,23.95,6.29
	c4.02,2.55,7.61,5.62,10.67,9.13c2.05,2.35,5.38,2.84,7.91,1.16l9.22-6.1c1.42-0.94,2.4-2.45,2.69-4.13
	c0.28-1.66-0.11-3.3-1.11-4.61c-4.92-6.52-11.09-11.55-18.32-14.95c-10.1-4.75-21.25-7.16-33.14-7.16c-7.88,0-15.61,1.09-22.99,3.23
	c-7.33,2.13-14.06,5.25-19.99,9.27c-5.78,3.92-10.46,8.97-13.94,14.98c-3.42,5.93-5.16,12.91-5.16,20.77
	c0,8.34,1.55,15.19,4.59,20.38c3.07,5.26,7.24,9.6,12.39,12.91c5.31,3.43,11.63,6.25,18.77,8.4c7.45,2.23,15.27,4.21,23.26,5.91
	c4.82,1.01,9.54,2.16,14.01,3.41c4.75,1.32,9.04,3.14,12.76,5.39c3.84,2.33,6.99,5.21,9.37,8.54c2.51,3.55,3.78,8.08,3.78,13.47
	c0,5.37-1.32,10.06-3.91,13.94c-2.48,3.74-5.84,6.9-9.99,9.39c-4.03,2.42-8.57,4.19-13.5,5.24c-4.77,1.04-9.59,1.57-14.31,1.57
	c-11.02,0-20.32-2.3-27.66-6.83c-4.98-3.08-9.73-6.96-14.13-11.53c-2.03-2.11-5.55-2.33-7.94-0.48l-8.82,6.82
	c-1.33,1.03-2.16,2.53-2.33,4.21c-0.17,1.72,0.36,3.4,1.5,4.72c6.73,7.81,14.14,13.47,22,16.81c10.39,4.41,22.96,6.64,37.36,6.64
	c8.41,0,16.76-0.97,24.82-2.89c7.94-1.9,15.12-4.96,21.35-9.07C593.72,232.61,598.72,227.27,602.44,220.76z"/>
<path class="st0" d="M256.26,163.82c1.15-1.17,1.76-2.72,1.72-4.35c-0.38-15.87-2.11-34.37-12.12-51.27l-0.39-0.71
	c-0.16-0.3-0.33-0.6-0.5-0.89c-0.33-0.52-0.73-1.1-1.12-1.69l-0.37-0.54c-2.58-3.96-5.05-7.18-7.58-9.87
	c-6.99-7.46-15.44-13.22-25.15-17.12c-9.77-3.93-20.66-5.93-32.39-5.93c-12.45,0-24.09,2.18-34.6,6.48
	c-10.47,4.28-19.65,10.38-27.29,18.13c-7.62,7.73-13.66,17.17-17.96,28.04c-4.31,10.89-6.49,22.98-6.49,35.94
	c0,12.26,2.01,23.94,5.96,34.72c3.93,10.73,9.61,20.17,16.88,28.03c7.24,7.84,16.24,14.18,26.73,18.84
	c10.49,4.64,22.48,6.99,35.64,6.99c15.91,0,30.05-2.61,42.03-7.76c9.37-4.03,18.3-10.59,26.55-19.51c1.22-1.32,1.84-3.08,1.69-4.84
	c-0.14-1.71-0.96-3.23-2.31-4.28l-7.44-5.8c-2.34-1.83-6-1.52-8.16,0.69c-5.7,5.85-12,10.57-18.75,14.05
	c-9.14,4.7-20.45,7.08-33.6,7.08c-8.38,0-16.23-1.6-23.34-4.75c-7.06-3.14-13.3-7.46-18.55-12.84c-5.21-5.33-9.51-11.67-12.77-18.84
	c-3.26-7.17-5.17-14.77-5.69-22.6l-0.23-3.47l135.23-0.07C253.54,165.67,255.1,165.01,256.26,163.82z M212.65,147.61h-96.24
	l0.49-3.68c2.08-15.65,8.46-28.38,18.97-37.83c10.52-9.48,24.43-14.28,41.37-14.28c16.98,0,30.56,4.83,40.35,14.37
	c9.77,9.51,15,22.29,15.54,37.99l0.11,3.37L212.65,147.61z"/>
<path class="st0" d="M807.37,248.61h10.46c3.35,0,6.07-2.71,6.07-6.05v-64.79c0.16-14.5,11.44-25.85,25.67-25.85
	c12.95,0,22.5,8.22,25.68,22.03l0.01,0l0.46,2.25c7.79,41.96,44.53,72.4,87.36,72.4c45.11,0,83.05-33.64,88.24-78.26l0.32-2.72
	l2.74-0.15c6.93-0.38,12.36-6.06,12.36-12.94c0-7.18-5.87-13.03-13.08-13.03c-0.44,0.06-0.66,0.09-0.88,0.1l-2.73,0.18l-0.18-0.76
	c-9.4-38.39-41.38-66.15-79.59-69.2c-24.94-1.99-49.74,6.67-67.99,23.76l-5.48,5.13V6.53c0-3.33-2.73-6.05-6.07-6.05h-10.46
	c-3.35,0-6.07,2.71-6.07,6.05v130.58l-4.63-2.15c-14.28-6.61-30.87-5.74-44.38,2.31l-3.63,2.16l-1.17-4.05
	c-10.91-37.71-46.02-64.04-85.37-64.04c-41.27,0-76.81,27.94-86.41,67.94l-0.7,2.9l-2.96-0.45c-0.79-0.12-1.41-0.22-2.05-0.22
	c-7.21,0-13.08,5.84-13.08,13.03s5.87,13.03,13.08,13.03l0.48-0.06l3.07-0.13l0.36,2.98c5.3,44.48,43.22,78.02,88.21,78.02
	c22.64,0,44.23-8.54,60.79-24.05l5.48-5.13v23.35C801.3,245.9,804.03,248.61,807.37,248.61z M897.91,153.38
	c3.09-30.68,27.68-55.17,58.48-58.23c19.76-1.97,39.11,4.92,53.08,18.9c13.89,13.9,20.74,33.12,18.77,52.71
	c-3.07,30.69-27.66,55.19-58.46,58.26c-2.22,0.22-4.44,0.33-6.65,0.33c-17.42,0-34.06-6.83-46.47-19.24
	C902.78,192.2,895.94,172.98,897.91,153.38z M800.2,166.54c-3.07,30.69-27.66,55.19-58.46,58.26c-2.22,0.22-4.44,0.33-6.65,0.33
	c-17.42,0-34.06-6.82-46.46-19.24c-13.9-13.91-20.74-33.13-18.76-52.73c3.09-30.68,27.68-55.17,58.48-58.24
	c19.77-1.97,39.12,4.93,53.08,18.9C795.32,127.74,802.16,146.95,800.2,166.54z"/>
<path class="st0" d="M15.36,0.48H6.06C2.72,0.48,0,3.2,0,6.54V17c0,3.34,2.72,6.05,6.06,6.05h9.31c7.13,0,12.94,5.81,12.94,12.94
	l0.01,206.55c0,3.34,2.72,6.06,6.07,6.06H44.8c3.35,0,6.06-2.72,6.06-6.06V35.99C50.87,16.41,34.94,0.48,15.36,0.48z"/>
<path class="st0" d="M1144.63,226.04h-9.31c-7.14,0-12.94-5.8-12.94-12.94l-0.01-207.07c0-3.33-2.71-6.04-6.03-6.04h-10.45
	c-3.35,0-6.08,2.73-6.08,6.08v207.03c0,19.58,15.93,35.51,35.51,35.51h9.31c3.34,0,6.06-2.72,6.06-6.06V232.1
	C1150.68,228.76,1147.97,226.04,1144.63,226.04z"/>
<g class="st1">
	<path class="st0" d="M691.36,170.31c-1.36-6.05-1.49-12.55,0-19.3c3.71-16.81,17.12-30.24,33.93-33.98
		c6.79-1.51,13.34-1.38,19.42,0c2.57,0.58,3.19,3.94,0.99,5.39c-8.22,5.45-17.69,12.74-27.23,22.33
		c-9.26,9.3-16.34,18.52-21.67,26.56C695.33,173.51,691.94,172.89,691.36,170.31z"/>
</g>
<g class="st1">
	<path class="st0" d="M1006.75,170.31c1.36-6.05,1.49-12.55,0-19.3c-3.71-16.81-17.12-30.24-33.93-33.98
		c-6.79-1.51-13.34-1.38-19.42,0c-2.57,0.58-3.19,3.94-0.99,5.39c8.22,5.45,17.69,12.74,27.23,22.33
		c9.26,9.3,16.34,18.52,21.67,26.56C1002.78,173.51,1006.17,172.89,1006.75,170.31z"/>
</g>
<path class="st0" d="M424.99,248.61h10.47c3.35,0,6.07-2.72,6.07-6.06v-97.43c0-10.09-1.27-19.51-3.79-28
	c-2.46-8.33-6.31-15.51-11.46-21.36c-5.12-5.81-11.69-10.42-19.53-13.71c-7.9-3.3-17.46-4.97-28.42-4.97
	c-24.66,0-47.89,9.84-60.62,25.67l-1.63,2.03V77.52c0-3.34-2.72-6.06-6.07-6.06h-8.23c-3.35,0-6.07,2.72-6.07,6.06v165.03
	c0,3.34,2.72,6.06,6.07,6.06h10.48c3.35,0,6.07-2.72,6.07-6.06v-74.66c0-10.19,1.1-19.63,3.27-28.06
	c2.21-8.59,5.65-16.12,10.23-22.39c4.65-6.38,10.71-11.37,18.03-14.83c7.25-3.43,15.94-5.17,25.84-5.17
	c14.68,0,25.72,4.7,32.83,13.97c6.89,9.02,10.38,21.37,10.38,36.7v94.44C418.93,245.89,421.65,248.61,424.99,248.61z"/>
</svg>
